<svg height="683pt" viewBox="0 0 684 683" width="684pt" xmlns="http://www.w3.org/2000/svg"><path d="m0 0h684v683h-684z" fill="#fff"/><path d="m400 42h29c-.01 7.33-.01 14.67 0 22-9.67 0-19.34 0-29 0-.01-7.34-.01-14.67 0-22z"/><path d="m553 42h29c-.01 7.33-.01 14.67 0 22-7.34 0-14.67 0-22 0-.01 7-.01 14 0 21-7.34 0-14.67 0-22 0-.01 7.33-.01 14.66 0 22-1.75 0-5.25 0-7 0 0-1.75 0-5.25 0-7-1.75 0-5.25 0-7 0-.01 7.33-.01 14.67 0 22-9.67 0-19.34 0-29 0-.01-7.34-.01-14.67 0-22h21c-.01-7.34-.01-14.67 0-22h22c-.01-7.33-.01-14.67 0-22h15c-.02-4.67 0-9.33 0-14z"/><path d="m422 78h22c-.01 9.67 0 19.33 0 29-7.34 0-14.67 0-22 0-.01-9.67 0-19.33 0-29z"/><path d="m327 100h22v22c-7.34 0-14.67 0-22 0-.01-7.34 0-14.67 0-22z"/><path d="m363 115h22v29c-7.34 0-14.67 0-22 0-.01-9.67 0-19.33 0-29z"/><path d="m444 115c4.65-.01 9.33-.01 14 0v6.99c1.75 0 5.25.01 7 .01-.01 7.33-.01 14.67 0 22-7.01 0-14.01 0-21 0-.01-2.67-.01-5.33 0-8-2.67 0-5.34 0-8 0-.02-4.67 0-9.33 0-14h8c0-1.75 0-5.25 0-7z"/><path d="m400 136h29c-.01 7.33-.01 14.66 0 22-9.67 0-19.34 0-29 0-.01-7.34-.01-14.67 0-22z"/><path d="m232 158h95v15c12-.01 24 .01 36 0-.01 4.66 0 9.33 0 14h8c-.01 2.66-.01 5.33 0 8h51c0-3.75 0-11.25 0-15h58v15c-17 0-34 0-51 0v6.99c-1.75.01-5.25.01-7 .01v15c-19.67 0-39.34 0-59 0 0-7.34-.01-14.67 0-22-12 .01-24-.01-36 0 0-3.75 0-11.25 0-15-31.67 0-63.33 0-95 0v22c-4.68-.01-9.33 0-14 0v51c19.33.02 38.66-.02 58 0 .02 19.33-.02 38.67 0 58 12-.01 24 .01 36 0v15c12.33-.01 24.66 0 37 0-.01 12 0 24 0 36 4.65-.01 9.34 0 14 0-.02 14.66.01 29.33 0 44 7.33-.01 14.66 0 22 0v131c-7.34-.01-14.68-.01-22 0 .01 14.66-.02 29.33 0 44-4.68-.02-9.34 0-14 0 .01 12-.01 23.99 0 36-1.75 0-5.25 0-6.99 0-.01 2.66-.01 5.32-.01 8-10-.01-20-.01-30 0-.01 4.64 0 9.33 0 14-14.34-.01-28.67.01-43 0v15c-44 0-88 0-132 0 0-3.75 0-11.25 0-15-14.33.01-28.67-.02-43 0 0-4.69 0-9.33 0-14-12.34 0-24.67-.01-37.01 0 .03-14.67-.01-29.34.01-44-4.67-.03-9.33 0-14 0 .01-12.01-.01-24 0-36-7.33-.01-14.67-.01-22 0 0-46.33 0-92.67 0-139 4.67-.02 9.33 0 14 0-.01-12 .01-24 0-36 7.33 0 14.67-.01 22 0-.02-14.67.01-29.34 0-44 12.33 0 24.66-.01 37 0 0-3.75 0-11.25 0-15 14.33.01 28.66-.01 43 0 .02-19.33-.02-38.67 0-58h51c.02-19.34-.02-38.67 0-58h22c0-7.34 0-14.67 0-22h22c0-3.75 0-11.25 0-15z"/><path d="m516 158h22c-.01 7.33-.01 14.66 0 22-7.34 0-14.67 0-22 0-.01-7.34-.01-14.67 0-22z"/><path d="m553 158h29c-.01 7.33-.01 14.66 0 22-9.68 0-19.34 0-29 0-.01-7.34-.01-14.67 0-22z"/><path d="m589 158h29c-.01 7.33-.01 14.66 0 22-9.68 0-19.34 0-29 0-.01-7.34-.01-14.67 0-22z"/><path d="m524 209c4.64-.01 9.33 0 14 0-.01 7.33-.01 14.66 0 22 7.32-.01 14.66 0 22 0-.01 7.28 0 14.56.01 21.85 3.35.22 10.04.64 13.38.85.72 4.53 4.56 5.83 8.17 7.2.17 2.35.35 4.7.53 7.06 3.73.02 11.18.04 14.91.05-.01 6.99-.01 13.99 0 20.99-7.34-.01-14.67-.01-22 0-.02-4.68 0-9.33 0-14-7.34 0-14.67-.01-22 0-.01-7.34-.01-14.67 0-22-7.34 0-14.67 0-22 0 0-3.75 0-11.25 0-15-3.75 0-11.25 0-15 0-.01-7-.01-14 0-21h8c-.01-2.67-.01-5.34 0-8z"/><path d="m400 231c7.32-.01 14.66 0 21.99 0 .01 1.75.01 5.25.01 6.99 1.75.01 5.25.01 7 .01v15c-1.75 0-5.24 0-6.99 0-.01 1.75-.01 5.25-.01 7-3.75 0-11.25 0-15 0v15c-7.34-.01-14.67 0-22 0 0 7.33-.01 14.66 0 22-7.34 0-14.67 0-22 0-.01-9.67 0-19.34 0-29h15c0-3.75 0-11.25 0-15h22c-.01-7.34 0-14.67 0-22z"/><path d="m458 231h21.99c.01 1.75.01 5.25.01 6.99 1.75.01 5.25.01 7 .01v15c-1.75 0-5.25 0-6.99 0-.01 1.75-.01 5.25-.01 7-7.34 0-14.67 0-22 0-.01-9.67-.01-19.33 0-29z"/><path d="m458 268h21.99c.01 1.75.01 5.25.01 6.99 1.75.01 5.25.01 7 .01-.02 4.66 0 9.33 0 14-1.75 0-5.25 0-6.99 0-.01 2.66-.02 5.33-.01 8-7.34-.01-14.67-.01-22 0-.01-9.67-.01-19.33 0-29z"/><path d="m458 311h29v15c-1.75 0-5.25 0-6.99 0-.01 1.75-.01 5.25-.01 7-7.34 0-14.67 0-22 0-.01-7.34-.01-14.67 0-22z"/><g fill="#fff"><path d="m94 406c7.33-.01 14.67-.01 22 0v22c-7.34-.01-14.67-.01-22 0 0-7.34 0-14.67 0-22z"/><path d="m79 443h15v58c-3.75 0-11.25 0-15 0 0-19.34 0-38.67 0-58z"/><path d="m94 523c7.33-.01 14.67-.01 22 0v22c-7.34-.01-14.67-.01-22 0 0-7.34 0-14.67 0-22z"/><path d="m130 559c9.66-.01 19.33-.01 29 0v22c-9.67-.01-19.33 0-29 0 0-7.34 0-14.67 0-22z"/></g></svg>